<svg width="16" height="16" viewBox="0 0 16 16" fill="none" xmlns="http://www.w3.org/2000/svg">
<g clip-path="url(#clip0_209_541)">
<path d="M3.19995 12.8V16H-4.86374e-05V12.8H3.19995Z" fill="#044AB3"/>
<path d="M3.19995 12.8V16H-4.86374e-05V12.8H3.19995Z" fill="#044AB3"/>
<path d="M9.6001 6.4001V9.6001H6.4001V6.4001H9.6001Z" fill="#044AB3"/>
<path d="M9.6001 6.4001V9.6001H6.4001V6.4001H9.6001Z" fill="#044AB3"/>
<path d="M6.3999 9.5998V12.7998H3.1999V9.5998H6.3999Z" fill="#044AB3"/>
<path d="M6.3999 9.5998V12.7998H3.1999V9.5998H6.3999Z" fill="#044AB3"/>
<path d="M12.8 3.1999V6.3999H9.60005V3.1999H12.8Z" fill="#044AB3"/>
<path d="M12.8 3.1999V6.3999H9.60005V3.1999H12.8Z" fill="#044AB3"/>
<path d="M9.6001 0.000195503V3.2002H6.4001V0.000195503H9.6001Z" fill="#044AB3"/>
<path d="M9.6001 0.000195503V3.2002H6.4001V0.000195503H9.6001Z" fill="#044AB3"/>
<path d="M12.8 0.000195503V3.2002H9.60005V0.000195503H12.8Z" fill="#044AB3"/>
<path d="M12.8 0.000195503V3.2002H9.60005V0.000195503H12.8Z" fill="#044AB3"/>
<path d="M16 0.000195503V3.2002H12.8V0.000195503H16Z" fill="#044AB3"/>
<path d="M16 0.000195503V3.2002H12.8V0.000195503H16Z" fill="#044AB3"/>
<path d="M16 3.1999V6.3999H12.8V3.1999H16Z" fill="#044AB3"/>
<path d="M16 3.1999V6.3999H12.8V3.1999H16Z" fill="#044AB3"/>
<path d="M16 6.4001V9.6001H12.8V6.4001H16Z" fill="#044AB3"/>
<path d="M16 6.4001V9.6001H12.8V6.4001H16Z" fill="#044AB3"/>
</g>
<defs>
<clipPath id="clip0_209_541">
<rect width="16" height="16" fill="white" transform="matrix(1 0 0 -1 0 16)"/>
</clipPath>
</defs>
</svg>
